HIERARCHY
ROOT Hips
{
  OFFSET 0.14626 102.729 -204.226
  CHANNELS 6 Xposition Yposition Zposition Zrotation Xrotation Yrotation
  JOINT RightUpLeg
  {
    OFFSET -8.9458 -8.66707 0.101652
    CHANNELS 3 Zrotation Xrotation Yrotation
    JOINT RightLeg
    {
      OFFSET 0 -44.4227 1.3727
      CHANNELS 3 Zrotation Xrotation Yrotation
      JOINT RightFoot
      {
        OFFSET 0.253549 -42.0924 -1.46059
        CHANNELS 3 Zrotation Xrotation Yrotation
        JOINT RightToes
        {
          OFFSET 0.04 -4.41509 8.4991
          CHANNELS 3 Zrotation Xrotation Yrotation
          End Site
          {
            OFFSET -0.08 -0.137448 9.77979
          }
        }
      }
    }
  }
  JOINT Spine
  {
    OFFSET 0 11.8905 0
    CHANNELS 3 Zrotation Xrotation Yrotation
    JOINT Spine1
    {
      OFFSET 0 25.6574 0.127663
      CHANNELS 3 Zrotation Xrotation Yrotation
      JOINT HEad
      {
        OFFSET 0 8.73416 0.011341
        CHANNELS 3 Zrotation Xrotation Yrotation
        End Site
        {
          OFFSET -0.29 12.7742 2.51395
        }
      }
      JOINT LeftShoulder1
      {
        OFFSET 8.99 -0.362252 -0.22
        CHANNELS 3 Zrotation Xrotation Yrotation
        JOINT LeftArm
        {
          OFFSET 10.2827 -0.00338 0.322123
          CHANNELS 3 Zrotation Xrotation Yrotation
          JOINT LeftForeArm
          {
            OFFSET 32.7669 0.099144 -1.42434
            CHANNELS 3 Zrotation Xrotation Yrotation
            JOINT LeftHand
            {
              OFFSET 27.5643 0.085362 1.02216
              CHANNELS 3 Zrotation Xrotation Yrotation
              End Site
              {
                OFFSET 16.7443 -0.6 1.50291
              }
            }
          }
        }
      }
      JOINT RightShoulder
      {
        OFFSET -8.99 -0.362252 -0.22
        CHANNELS 3 Zrotation Xrotation Yrotation
        JOINT RightArm
        {
          OFFSET -10.2827 -0.00338 0.322123
          CHANNELS 3 Zrotation Xrotation Yrotation
          JOINT RightForeArm
          {
            OFFSET -32.8971 0.099144 -1.42434
            CHANNELS 3 Zrotation Xrotation Yrotation
            JOINT RightHand
            {
              OFFSET -27.4921 0.085362 1.02216
              CHANNELS 3 Zrotation Xrotation Yrotation
              End Site
              {
                OFFSET -16.6312 -0.6 1.50291
              }
            }
          }
        }
      }
    }
  }
  JOINT LeftUpLeg
  {
    OFFSET 8.9458 -8.66707 0.101652
    CHANNELS 3 Zrotation Xrotation Yrotation
    JOINT LeftLeg
    {
      OFFSET 0 -44.4227 1.3727
      CHANNELS 3 Zrotation Xrotation Yrotation
      JOINT LeftFoot
      {
        OFFSET -0.253549 -42.0924 -1.46059
        CHANNELS 3 Zrotation Xrotation Yrotation
        JOINT LeftToes
        {
          OFFSET -0.04 -4.41509 8.4991
          CHANNELS 3 Zrotation Xrotation Yrotation
          End Site
          {
            OFFSET 0.08 -0.047448 9.77979
          }
        }
      }
    }
  }
}
MOTION
Frames:	17
Frame Time:	0.0166667
-0.307995 99.1933 -54.8581 1.0032 0.0459758 -6.46529 2.51035 3.4013 -1.29256 -0.563585 32.107 -3.4116 4.40872 -24.9637 0.654232 -0.544714 -2.24797 3.18253 5.89609 2.74781 -0.239889 -1.05323 -9.72251 -0.392895 -0.710482 6.40131 6.13065 3.97569e-016 3.18055e-015 7.95139e-016 -79.7959 -37.6183 1.57528 -22.1894 13.8893 -9.4428 0.368473 9.90896 -0.00117927 -4.84615 0.26618 2.86427 96.8339 -16.7994 19.9613 19.794 12.119 -1.33864 -0.369625 9.91382 0.00119887 -5.13508 -18.6078 11.8804 2.09876 3.63471 18.5502 -18.5591 -6.02952 -0.566147 1.2975 4.82792 -2.42714 
-0.240645 99.2501 -53.0067 1.22584 0.201004 -6.72182 1.70367 4.00488 -1.74853 -0.601088 32.5595 -2.94652 4.92617 -24.143 0.729368 -0.974057 -1.50416 5.51603 5.57277 2.84261 -0.32574 -1.07176 -10.3006 -0.405117 -0.791137 6.71927 6.45035 1.19271e-015 0 -0 -79.1466 -38.2537 2.44973 -22.4735 13.8516 -9.26961 0.368473 9.90896 -0.00117927 -5.14636 0.281025 3.62124 96.9577 -17.7787 19.1458 19.4147 12.0265 -2.00466 -0.369625 9.91382 0.00119887 -5.7797 -17.8049 10.2108 1.8168 3.60716 18.1076 -16.9855 -5.05736 -0.376343 1.86324 6.92737 -3.32816 
-0.17923 99.472 -51.1609 1.5532 0.260021 -6.95304 0.815873 4.49116 -2.21856 -0.799667 33.1851 -2.34768 5.38039 -22.6106 0.753101 -1.42587 -0.569289 7.65799 5.10104 2.77493 -0.413668 -1.23356 -10.5301 -0.419573 -0.583242 6.97949 6.70043 -9.93923e-016 1.59028e-015 -1.59028e-015 -78.4104 -38.6366 3.11595 -22.7981 13.7779 -8.92397 0.368473 9.90896 -0.00117927 -4.97431 0.311085 4.06036 96.6668 -18.7808 18.3038 19.1898 11.9455 -2.55548 -0.369625 9.91382 0.00119887 -6.13087 -16.9902 7.1689 1.21469 3.30932 19.9001 -15.0593 -2.24296 0.0181677 0.669251 7.12656 -1.24338 
-0.139208 99.7472 -49.3486 1.93041 0.241061 -7.08637 -0.0934666 4.67271 -2.75545 -1.18224 34.2992 -1.79982 5.86016 -20.5748 0.740823 -2.06378 0.751815 10.7156 4.62803 2.69949 -0.538165 -1.61136 -10.5424 -0.449892 -0.211361 7.10426 6.81467 -1.59028e-015 0 1.59028e-015 -77.8088 -38.8582 3.3933 -22.9348 13.6912 -8.49685 0.368473 9.90896 -0.00117927 -4.57083 0.347536 4.30754 96.2439 -19.732 17.4102 19.0721 11.9006 -2.86143 -0.369625 9.91382 0.00119887 -6.32268 -16.1032 3.41484 0.412025 3.0893 22.4988 -13.5237 0.337389 0.364764 -0.837124 6.63179 1.39163 
-0.164584 99.9819 -47.6092 2.30157 0.129699 -6.97242 -0.948028 4.34986 -3.52113 -1.80383 36.3214 -1.58133 6.44972 -18.1897 0.706118 -3.39292 2.42443 16.1954 4.32569 2.74445 -0.753055 -2.39768 -10.3576 -0.52088 0.367754 6.8974 6.60982 1.98785e-016 -1.59028e-015 3.18055e-015 -77.5772 -38.9275 2.94055 -22.567 13.6056 -8.01995 0.368473 9.90896 -0.00117927 -3.96924 0.392087 4.3815 95.8796 -20.55 16.4643 19.0483 11.922 -2.73468 -0.369625 9.91382 0.00119887 -6.41953 -15.1798 -1.20297 -0.752144 3.35601 25.3447 -13.3479 0.475545 0.381385 -1.57852 6.06936 2.70547 
-0.176733 100.195 -45.9281 2.6965 -0.021977 -6.79468 -1.80586 3.52319 -4.19454 -2.65501 39.0153 -1.28579 7.10147 -15.4031 0.629859 -5.14199 5.0931 22.3753 4.08922 2.84959 -0.980311 -3.26378 -10.0765 -0.596112 0.832688 6.58598 6.38816 -5.96354e-016 7.95139e-016 3.18055e-015 -77.6547 -38.8749 2.08767 -22.0321 13.5325 -7.59018 0.368473 9.90896 -0.00117927 -3.50755 0.423476 4.36634 95.6409 -21.2223 15.4911 19.0892 11.9754 -2.39481 -0.369625 9.91382 0.00119887 -6.55138 -14.1635 -4.96923 -1.79886 3.69793 27.4891 -13.6488 -0.236936 0.282676 -1.95519 5.50703 3.39964 
-0.0882272 100.372 -44.2969 3.13527 -0.181111 -6.69778 -2.72378 2.05958 -4.51456 -3.94585 42.3427 -0.482668 7.93084 -11.9111 0.478495 -7.56509 10.1147 29.0441 3.9001 3.01785 -1.15542 -3.90443 -9.81974 -0.64392 0.750951 6.33631 6.44287 1.98785e-016 0 1.59028e-015 -78.145 -38.7798 1.00136 -21.5426 13.4842 -7.28415 0.368473 9.90896 -0.00117927 -3.71867 0.411583 4.4201 95.7905 -21.6993 14.4827 19.1412 12.0483 -1.93938 -0.369625 9.91382 0.00119887 -7.12056 -13.0908 -5.62679 -2.05976 3.8649 27.2683 -13.9189 -0.907658 0.194472 -1.9939 5.36461 3.47604 
0.0305245 100.517 -42.7364 3.58718 -0.303921 -6.64884 -3.56188 0.160469 -4.47613 -5.42848 46.1066 0.715148 8.55604 -8.62195 0.311892 -10.2552 14.7245 33.8204 3.66964 3.1881 -1.29159 -4.44501 -9.54864 -0.675421 0.516309 6.1372 6.61521 1.98785e-016 -7.95139e-016 -1.59028e-015 -78.7575 -38.4975 -0.14844 -21.1607 13.475 -7.1935 0.368473 9.90896 -0.00117927 -4.05225 0.384596 4.33964 95.9516 -22.0086 13.5464 19.2621 12.1051 -1.54626 -0.369625 9.91382 0.00119887 -7.89279 -12.0597 -5.08749 -1.99129 3.94601 26.2485 -14.0728 -1.64731 0.099851 -1.8165 5.18943 3.16837 
0.150505 100.612 -41.281 4.07997 -0.321421 -6.69657 -4.15518 -2.06716 -3.98698 -6.9938 50.2116 3.03898 8.45765 -6.47354 0.169963 -10.4568 17.8735 32.0879 3.23222 3.29281 -1.37351 -4.92513 -9.25388 -0.689311 0.39122 6.07048 6.88696 -9.93923e-017 7.95139e-016 1.59028e-015 -79.1948 -37.8968 -1.06657 -21.085 13.5346 -7.51036 0.368473 9.90896 -0.00117927 -4.15142 0.361191 3.95212 95.8213 -22.0924 12.8223 19.5356 12.0948 -1.48336 -0.369625 9.91382 0.00119887 -8.69449 -11.1599 -4.43389 -1.84114 3.91737 25.4801 -13.7077 -2.22933 0.0292836 -1.51068 4.56179 2.65425 
0.234965 100.705 -39.8812 4.45788 -0.276306 -6.74072 -4.48483 -4.48527 -3.04117 -8.58017 54.2834 4.57036 8.08303 -5.07414 0.055995 -9.1301 19.8631 27.9236 2.7969 3.35415 -1.42203 -5.29698 -8.96823 -0.691195 0.328286 6.02211 7.13051 -3.97569e-016 -7.95139e-016 1.59028e-015 -79.5506 -37.053 -1.94304 -21.1153 13.626 -8.01084 0.368473 9.90896 -0.00117927 -3.96991 0.339619 3.32457 95.4398 -22.1705 12.21 19.8361 12.0546 -1.57941 -0.369625 9.91382 0.00119887 -9.37117 -10.3036 -3.79485 -1.65624 3.81233 24.8544 -13.2594 -2.77308 -0.0336011 -1.19045 3.79882 2.10326 
0.217971 100.853 -38.4938 4.52914 -0.193058 -6.68773 -4.42475 -6.90442 -1.42891 -8.57305 58.051 1.43551 7.77663 -4.38577 -0.00512297 -7.67693 19.4291 24.3789 2.55162 3.35968 -1.4558 -5.52208 -8.71358 -0.686168 0.375268 5.89802 7.19714 3.97569e-016 -1.59028e-015 1.59028e-015 -79.7693 -35.9938 -2.86093 -21.111 13.7252 -8.54626 0.368473 9.90896 -0.00117927 -3.24075 0.329458 2.411 94.6719 -22.4819 11.6482 20.0609 12.006 -1.73815 -0.369625 9.91382 0.00119887 -9.60574 -9.39672 -3.90362 -1.57366 3.60031 24.8515 -13.0748 -3.29654 -0.0907145 -0.971086 3.07867 1.731 
0.158054 101.012 -37.1346 4.42918 -0.0572919 -6.56631 -4.08864 -9.35323 0.369918 -7.02213 61.2237 -3.43159 7.33396 -4.28487 -0.0321126 -6.3716 17.9979 21.1858 2.39541 3.34562 -1.46633 -5.61164 -8.51327 -0.674353 0.510542 5.72107 7.13209 -9.93923e-017 -7.95139e-016 1.59028e-015 -79.9936 -34.7188 -3.84542 -21.0936 13.8244 -9.08255 0.368473 9.90896 -0.00117927 -2.26812 0.315407 1.37754 93.6912 -22.9161 11.143 20.2228 11.9421 -2.00188 -0.369625 9.91382 0.00119887 -9.5781 -8.57014 -4.00521 -1.55372 3.46049 24.7552 -13.0193 -3.87735 -0.15498 -0.872584 2.40406 1.57007 
0.0943968 101.166 -35.8034 4.18663 0.175374 -6.38819 -3.62808 -11.8413 1.99024 -5.33004 63.6745 -6.3861 6.57698 -4.70904 -0.0301083 -5.63167 17.1783 19.3052 2.33019 3.34005 -1.44364 -5.50235 -8.46367 -0.657524 0.7257 5.47305 6.9552 1.98785e-016 0 1.59028e-015 -80.3356 -33.2005 -4.91328 -21.0704 13.9109 -9.54246 0.368473 9.90896 -0.00117927 -1.27189 0.288117 0.422445 92.5952 -23.4771 10.6631 20.2868 11.861 -2.39444 -0.369625 9.91382 0.00119887 -9.32953 -7.98774 -3.24965 -1.63748 3.63539 23.6384 -13.1124 -4.66423 -0.249674 -1.00427 1.90265 1.82518 
0.0191054 101.296 -34.5049 3.9276 0.390741 -6.11087 -3.13284 -14.2388 3.27172 -3.76417 65.4402 -8.47894 5.78712 -5.43666 -0.0129226 -4.95142 16.0176 17.7123 2.2357 3.35489 -1.41084 -5.37878 -8.36763 -0.635737 1.02417 5.18202 6.59453 0 0 -1.59028e-015 -80.8022 -31.543 -6.16222 -20.9485 13.9789 -9.90558 0.368473 9.90896 -0.00117927 -0.240916 0.239486 -0.596588 91.4849 -24.0577 10.2637 20.2926 11.7686 -2.87459 -0.369625 9.91382 0.00119887 -9.0863 -7.44425 -2.6749 -1.71605 3.90116 22.6117 -13.2429 -5.46186 -0.346034 -1.19343 1.37761 2.19516 
-0.0665422 101.369 -33.2531 3.836 0.465125 -5.65688 -2.85119 -16.4259 3.80693 -3.04057 66.4698 -9.41005 5.24257 -6.189 0.00362899 -4.14148 13.7426 15.8211 1.93903 3.42826 -1.3929 -5.46461 -8.00824 -0.609911 1.43211 4.8434 5.90606 9.93923e-017 3.97569e-016 -0 -81.4938 -29.8349 -7.79528 -20.5746 14.0061 -10.0597 0.368473 9.90896 -0.00117927 0.782498 0.153009 -1.8072 90.5146 -24.5504 10.0193 20.2536 11.6661 -3.44409 -0.369625 9.91382 0.00119887 -9.11088 -6.76671 -3.32975 -1.71023 4.08149 22.7383 -13.2949 -6.06591 -0.41554 -1.31086 0.579129 2.44294 
-0.150882 101.42 -32.02 3.77376 0.47055 -5.14225 -2.71973 -18.4278 3.89063 -2.68345 66.7607 -9.95575 4.77551 -7.07496 0.0205018 -3.24124 11.0985 13.4856 1.59989 3.50953 -1.37422 -5.5803 -7.54119 -0.579481 1.86451 4.53466 5.12625 -0 0 7.95139e-016 -82.212 -28.0799 -9.5016 -20.138 14.0299 -10.2026 0.368473 9.90896 -0.00117927 1.73334 0.0447294 -3.05509 89.6462 -24.9588 9.84737 20.2142 11.5663 -3.99805 -0.369625 9.91382 0.00119887 -9.20172 -6.038 -4.31582 -1.64048 4.259 23.2356 -13.2928 -6.65225 -0.479909 -1.36728 -0.206622 2.58356 
-0.211731 101.486 -30.7775 3.65152 0.430398 -4.66295 -2.72054 -20.213 3.64589 -2.15608 66.2121 -11.1826 4.3169 -8.16768 0.0357419 -2.12768 8.57578 10.0638 1.33525 3.55443 -1.34388 -5.59394 -7.04448 -0.542093 2.23471 4.35853 4.48514 1.49089e-016 -1.19271e-015 -2.38542e-015 -82.8562 -26.315 -11.0497 -19.7807 14.0826 -10.5167 0.368473 9.90896 -0.00117927 2.48481 -0.0782021 -4.24452 88.9154 -25.2061 9.67775 20.2541 11.4846 -4.41143 -0.369625 9.91382 0.00119887 -9.29165 -5.26713 -5.09208 -1.45708 4.42947 23.8043 -13.2185 -7.42902 -0.56286 -1.23988 -0.51245 2.36949 
